<?xml version="1.0" encoding="UTF-8" standalone="no"?>
<!-- Created with Inkscape (http://www.inkscape.org/) -->

<svg
   viewBox="0 0 43.000803 43.000001"
   id="svg4316"
   version="1.1"
   width="45.867523"
   height="45.866665"
   xmlns="http://www.w3.org/2000/svg"
   xmlns:svg="http://www.w3.org/2000/svg"
   xmlns:rdf="http://www.w3.org/1999/02/22-rdf-syntax-ns#"
   xmlns:cc="http://creativecommons.org/ns#"
   xmlns:dc="http://purl.org/dc/elements/1.1/">
  <defs
     id="defs4318" />
  <metadata
     id="metadata4321">
    <rdf:RDF>
      <cc:Work
         rdf:about="">
        <dc:format>image/svg+xml</dc:format>
        <dc:type
           rdf:resource="http://purl.org/dc/dcmitype/StillImage" />
        <dc:title />
      </cc:Work>
    </rdf:RDF>
  </metadata>
  <g
     id="layer1"
     transform="translate(1273.2961,385.07437)">
    <g
       id="g3192"
       transform="matrix(0.73983191,0,0,-0.73983191,-1297.4134,-88.850475)">
      <g
         transform="translate(60.095505,391.48151)"
         id="g3093">
        <path
           id="path3095"
           style="fill:#6ba62e;fill-opacity:1;fill-rule:nonzero;stroke:none"
           d="m 0,0 c 4.468,-2.538 9.501,-3.825 14.958,-3.825 h 10e-4 c 7.183,0 13.214,2.24 15.666,3.3 v 3.304 c -0.006,0.622 -0.22,6.133 -5.957,6.133 H -21.54 C -22.143,8.907 -27.497,8.683 -27.497,2.779 V 1.758 c 2.799,1.135 7.037,2.389 12.129,2.389 C -10.015,4.147 -4.844,2.751 0,0" />
      </g>
      <g
         transform="translate(81.502808,365.9532)"
         id="g3097">
        <path
           id="path3099"
           style="fill:#6ba62e;fill-opacity:1;fill-rule:nonzero;stroke:none"
           d="m 0,0 v -23.681 h 3.255 c 0.62,0.007 5.963,0.236 5.963,6.133 V 2.556 C 7.189,1.742 3.955,0.645 0,0" />
      </g>
      <g
         transform="translate(75.055801,365.41859)"
         id="g3101">
        <path
           id="path3103"
           style="fill:#6ba62e;fill-opacity:1;fill-rule:nonzero;stroke:none"
           d="M 0,0 H -0.001 C -1.975,0 -3.898,0.16 -5.766,0.473 V -23.146 H 3.539 V 0.164 C 2.399,0.059 1.217,0 0,0" />
      </g>
      <g
         transform="translate(58.879303,369.5654)"
         id="g3105">
        <path
           id="path3107"
           style="fill:#6ba62e;fill-opacity:1;fill-rule:nonzero;stroke:none"
           d="m 0,0 c -0.596,0.338 -1.197,0.653 -1.803,0.947 v -28.24 H 7.502 V -3.052 C 4.871,-2.36 2.364,-1.343 0,0" />
      </g>
      <g
         transform="translate(44.862503,373.3884)"
         id="g3109">
        <path
           id="path3111"
           style="fill:#811c76;fill-opacity:1;fill-rule:nonzero;stroke:none"
           d="M 0,0 V -31.116 H 9.305 V -1.653 C 6.295,-0.571 3.182,-0.015 0,0" />
      </g>
      <g
         transform="translate(32.598404,370.9183)"
         id="g3113">
        <path
           id="path3115"
           style="fill:#811c76;fill-opacity:1;fill-rule:nonzero;stroke:none"
           d="m 0,0 v -22.513 c 0.006,-0.622 0.22,-6.133 5.958,-6.133 H 9.356 V 2.335 C 5.391,1.961 2.129,0.888 0,0" />
      </g>
      <g
         transform="translate(60.095505,381.6107)"
         id="g3117">
        <path
           id="path3119"
           style="fill:#6ba62e;fill-opacity:1;fill-rule:nonzero;stroke:none"
           d="m 0,0 c 4.468,-2.539 9.501,-3.826 14.958,-3.826 h 10e-4 c 7.186,10e-4 13.215,2.241 15.666,3.301 V 6.674 C 27.575,5.45 21.802,3.583 14.959,3.583 h -10e-4 c -5.889,0 -11.33,1.395 -16.174,4.147 -4.469,2.538 -9.23,3.826 -14.152,3.826 -5.3,0 -9.634,-1.496 -12.129,-2.609 V 1.76 c 2.799,1.134 7.04,2.386 12.129,2.386 C -10.015,4.146 -4.844,2.751 0,0" />
      </g>
      <g
         transform="translate(60.095505,371.7061)"
         id="g3121">
        <path
           id="path3123"
           style="fill:#5c9bc1;fill-opacity:1;fill-rule:nonzero;stroke:none"
           d="m 0,0 c 4.468,-2.538 9.501,-3.825 14.959,-3.825 7.182,0 13.212,2.239 15.666,3.3 V 6.707 C 27.575,5.484 21.802,3.617 14.959,3.616 h -10e-4 c -5.889,0 -11.33,1.396 -16.174,4.148 -4.469,2.538 -9.23,3.825 -14.152,3.825 -5.3,0 -9.634,-1.496 -12.129,-2.609 V 1.76 c 2.799,1.134 7.041,2.387 12.129,2.387 C -10.015,4.147 -4.844,2.751 0,0" />
      </g>
    </g>
  </g>
</svg>
